<?xml version="1.0" encoding="UTF-8" standalone="no"?>
<!DOCTYPE svg PUBLIC "-//W3C//DTD SVG 1.1//EN"
 "http://www.w3.org/Graphics/SVG/1.1/DTD/svg11.dtd">
<!-- Generated by graphviz version 2.47.0 (20210316.0004)
 -->
<!-- Title: dependencies Pages: 1 -->
<svg width="632pt" height="284pt"
 viewBox="0.00 0.00 632.00 284.00" xmlns="http://www.w3.org/2000/svg" xmlns:xlink="http://www.w3.org/1999/xlink">
<g id="graph0" class="graph" transform="scale(1 1) rotate(0) translate(4 280)">
<title>dependencies</title>
<polygon fill="white" stroke="transparent" points="-4,4 -4,-280 628,-280 628,4 -4,4"/>
<text text-anchor="start" x="291.01" y="-42.4" font-family="Times-12" font-weight="bold" font-size="14.00">Legend</text>
<polygon fill="#ffffb3" stroke="transparent" points="78,-10 78,-30 98,-30 98,-10 78,-10"/>
<text text-anchor="start" x="101.63" y="-15.4" font-family="Times-12" font-size="14.00"> &#160;Declarations</text>
<polygon fill="#8dd3c7" stroke="transparent" points="191,-10 191,-30 211,-30 211,-10 191,-10"/>
<text text-anchor="start" x="214.73" y="-15.4" font-family="Times-12" font-size="14.00"> &#160;Module</text>
<polygon fill="#80b1d3" stroke="transparent" points="277,-10 277,-30 297,-30 297,-10 277,-10"/>
<text text-anchor="start" x="300.78" y="-15.4" font-family="Times-12" font-size="14.00"> &#160;Bootstrap</text>
<polygon fill="#fdb462" stroke="transparent" points="374,-10 374,-30 394,-30 394,-10 374,-10"/>
<text text-anchor="start" x="397.67" y="-15.4" font-family="Times-12" font-size="14.00"> &#160;Providers</text>
<polygon fill="#fb8072" stroke="transparent" points="470,-10 470,-30 490,-30 490,-10 470,-10"/>
<text text-anchor="start" x="493.73" y="-15.4" font-family="Times-12" font-size="14.00"> &#160;Exports</text>
<g id="clust1" class="cluster">
<title>cluster_ViewsModule</title>
<polygon fill="none" stroke="black" stroke-dasharray="1,5" points="8,-70 8,-268 616,-268 616,-70 8,-70"/>
</g>
<g id="clust7" class="cluster">
<title>cluster_ViewsModule_exports</title>
<polygon fill="none" stroke="black" points="60,-208 60,-260 564,-260 564,-208 60,-208"/>
</g>
<g id="clust6" class="cluster">
<title>cluster_ViewsModule_imports</title>
<polygon fill="none" stroke="black" points="518,-78 518,-130 608,-130 608,-78 518,-78"/>
</g>
<g id="clust2" class="cluster">
<title>cluster_ViewsModule_declarations</title>
<polygon fill="none" stroke="black" points="16,-78 16,-130 510,-130 510,-78 16,-78"/>
</g>
<!-- ViewDetailComponent -->
<g id="node1" class="node">
<title>ViewDetailComponent</title>
<polygon fill="#ffffb3" stroke="black" points="501.86,-122 356.14,-122 356.14,-86 501.86,-86 501.86,-122"/>
<text text-anchor="middle" x="429" y="-99.8" font-family="Times,serif" font-size="14.00">ViewDetailComponent</text>
</g>
<!-- ViewsModule -->
<g id="node4" class="node">
<title>ViewsModule</title>
<polygon fill="#8dd3c7" stroke="black" points="352.81,-187 349.81,-191 328.81,-191 325.81,-187 257.19,-187 257.19,-151 352.81,-151 352.81,-187"/>
<text text-anchor="middle" x="305" y="-164.8" font-family="Times,serif" font-size="14.00">ViewsModule</text>
</g>
<!-- ViewDetailComponent&#45;&gt;ViewsModule -->
<g id="edge1" class="edge">
<title>ViewDetailComponent&#45;&gt;ViewsModule</title>
<path fill="none" stroke="black" d="M355.97,-104C349.52,-104 345.38,-104 345.38,-104 345.38,-104 345.38,-140.89 345.38,-140.89"/>
<polygon fill="black" stroke="black" points="341.88,-140.89 345.38,-150.89 348.88,-140.89 341.88,-140.89"/>
</g>
<!-- ViewDiscountComponent -->
<g id="node2" class="node">
<title>ViewDiscountComponent</title>
<polygon fill="#ffffb3" stroke="black" points="338.2,-122 175.8,-122 175.8,-86 338.2,-86 338.2,-122"/>
<text text-anchor="middle" x="257" y="-99.8" font-family="Times,serif" font-size="14.00">ViewDiscountComponent</text>
</g>
<!-- ViewDiscountComponent&#45;&gt;ViewsModule -->
<g id="edge2" class="edge">
<title>ViewDiscountComponent&#45;&gt;ViewsModule</title>
<path fill="none" stroke="black" d="M297.72,-122.11C297.72,-122.11 297.72,-140.99 297.72,-140.99"/>
<polygon fill="black" stroke="black" points="294.22,-140.99 297.72,-150.99 301.22,-140.99 294.22,-140.99"/>
</g>
<!-- ViewListComponent -->
<g id="node3" class="node">
<title>ViewListComponent</title>
<polygon fill="#ffffb3" stroke="black" points="157.93,-122 24.07,-122 24.07,-86 157.93,-86 157.93,-122"/>
<text text-anchor="middle" x="91" y="-99.8" font-family="Times,serif" font-size="14.00">ViewListComponent</text>
</g>
<!-- ViewListComponent&#45;&gt;ViewsModule -->
<g id="edge3" class="edge">
<title>ViewListComponent&#45;&gt;ViewsModule</title>
<path fill="none" stroke="black" d="M112.62,-122.02C112.62,-139.37 112.62,-163 112.62,-163 112.62,-163 246.95,-163 246.95,-163"/>
<polygon fill="black" stroke="black" points="246.95,-166.5 256.95,-163 246.95,-159.5 246.95,-166.5"/>
</g>
<!-- ViewDetailComponent  -->
<g id="node6" class="node">
<title>ViewDetailComponent </title>
<polygon fill="#fb8072" stroke="black" points="555.86,-252 406.14,-252 406.14,-216 555.86,-216 555.86,-252"/>
<text text-anchor="middle" x="481" y="-229.8" font-family="Times,serif" font-size="14.00">ViewDetailComponent </text>
</g>
<!-- ViewsModule&#45;&gt;ViewDetailComponent  -->
<g id="edge5" class="edge">
<title>ViewsModule&#45;&gt;ViewDetailComponent </title>
<path fill="none" stroke="black" stroke-dasharray="5,2" d="M353,-175C396.6,-175 454.12,-175 454.12,-175 454.12,-175 454.12,-205.98 454.12,-205.98"/>
<polygon fill="black" stroke="black" points="450.63,-205.98 454.12,-215.98 457.63,-205.98 450.63,-205.98"/>
</g>
<!-- ViewDiscountComponent  -->
<g id="node7" class="node">
<title>ViewDiscountComponent </title>
<polygon fill="#fb8072" stroke="black" points="387.7,-252 222.3,-252 222.3,-216 387.7,-216 387.7,-252"/>
<text text-anchor="middle" x="305" y="-229.8" font-family="Times,serif" font-size="14.00">ViewDiscountComponent </text>
</g>
<!-- ViewsModule&#45;&gt;ViewDiscountComponent  -->
<g id="edge6" class="edge">
<title>ViewsModule&#45;&gt;ViewDiscountComponent </title>
<path fill="none" stroke="black" stroke-dasharray="5,2" d="M305,-187.11C305,-187.11 305,-205.99 305,-205.99"/>
<polygon fill="black" stroke="black" points="301.5,-205.99 305,-215.99 308.5,-205.99 301.5,-205.99"/>
</g>
<!-- ViewListComponent  -->
<g id="node8" class="node">
<title>ViewListComponent </title>
<polygon fill="#fb8072" stroke="black" points="204.43,-252 67.57,-252 67.57,-216 204.43,-216 204.43,-252"/>
<text text-anchor="middle" x="136" y="-229.8" font-family="Times,serif" font-size="14.00">ViewListComponent </text>
</g>
<!-- ViewsModule&#45;&gt;ViewListComponent  -->
<g id="edge7" class="edge">
<title>ViewsModule&#45;&gt;ViewListComponent </title>
<path fill="none" stroke="black" stroke-dasharray="5,2" d="M257.3,-175C225.76,-175 190.18,-175 190.18,-175 190.18,-175 190.18,-205.98 190.18,-205.98"/>
<polygon fill="black" stroke="black" points="186.68,-205.98 190.18,-215.98 193.68,-205.98 186.68,-205.98"/>
</g>
<!-- UiModule -->
<g id="node5" class="node">
<title>UiModule</title>
<polygon fill="#8dd3c7" stroke="black" points="599.55,-122 596.55,-126 575.55,-126 572.55,-122 526.45,-122 526.45,-86 599.55,-86 599.55,-122"/>
<text text-anchor="middle" x="563" y="-99.8" font-family="Times,serif" font-size="14.00">UiModule</text>
</g>
<!-- UiModule&#45;&gt;ViewsModule -->
<g id="edge4" class="edge">
<title>UiModule&#45;&gt;ViewsModule</title>
<path fill="none" stroke="black" d="M540.95,-122.02C540.95,-139.37 540.95,-163 540.95,-163 540.95,-163 362.75,-163 362.75,-163"/>
<polygon fill="black" stroke="black" points="362.75,-159.5 352.75,-163 362.75,-166.5 362.75,-159.5"/>
</g>
</g>
</svg>
