<?xml version="1.0" encoding="UTF-8" standalone="no"?>
<!DOCTYPE svg PUBLIC "-//W3C//DTD SVG 1.1//EN"
 "http://www.w3.org/Graphics/SVG/1.1/DTD/svg11.dtd">
<!-- Generated by graphviz version 2.47.0 (20210316.0004)
 -->
<!-- Title: dependencies Pages: 1 -->
<svg width="1472pt" height="284pt"
 viewBox="0.00 0.00 1472.00 284.00" xmlns="http://www.w3.org/2000/svg" xmlns:xlink="http://www.w3.org/1999/xlink">
<g id="graph0" class="graph" transform="scale(1 1) rotate(0) translate(4 280)">
<title>dependencies</title>
<polygon fill="white" stroke="transparent" points="-4,4 -4,-280 1468,-280 1468,4 -4,4"/>
<text text-anchor="start" x="711.01" y="-42.4" font-family="Times-12" font-weight="bold" font-size="14.00">Legend</text>
<polygon fill="#ffffb3" stroke="transparent" points="498,-10 498,-30 518,-30 518,-10 498,-10"/>
<text text-anchor="start" x="521.63" y="-15.4" font-family="Times-12" font-size="14.00"> &#160;Declarations</text>
<polygon fill="#8dd3c7" stroke="transparent" points="611,-10 611,-30 631,-30 631,-10 611,-10"/>
<text text-anchor="start" x="634.73" y="-15.4" font-family="Times-12" font-size="14.00"> &#160;Module</text>
<polygon fill="#80b1d3" stroke="transparent" points="697,-10 697,-30 717,-30 717,-10 697,-10"/>
<text text-anchor="start" x="720.78" y="-15.4" font-family="Times-12" font-size="14.00"> &#160;Bootstrap</text>
<polygon fill="#fdb462" stroke="transparent" points="794,-10 794,-30 814,-30 814,-10 794,-10"/>
<text text-anchor="start" x="817.67" y="-15.4" font-family="Times-12" font-size="14.00"> &#160;Providers</text>
<polygon fill="#fb8072" stroke="transparent" points="890,-10 890,-30 910,-30 910,-10 890,-10"/>
<text text-anchor="start" x="913.73" y="-15.4" font-family="Times-12" font-size="14.00"> &#160;Exports</text>
<g id="clust1" class="cluster">
<title>cluster_UiModule</title>
<polygon fill="none" stroke="black" stroke-dasharray="1,5" points="8,-70 8,-268 1456,-268 1456,-70 8,-70"/>
</g>
<g id="clust2" class="cluster">
<title>cluster_UiModule_declarations</title>
<polygon fill="none" stroke="black" points="16,-78 16,-130 1448,-130 1448,-78 16,-78"/>
</g>
<g id="clust12" class="cluster">
<title>cluster_UiModule_exports</title>
<polygon fill="none" stroke="black" points="270,-208 270,-260 1176,-260 1176,-208 270,-208"/>
</g>
<!-- UiImageCarouselComponent -->
<g id="node1" class="node">
<title>UiImageCarouselComponent</title>
<polygon fill="#ffffb3" stroke="black" points="1440.07,-122 1259.93,-122 1259.93,-86 1440.07,-86 1440.07,-122"/>
<text text-anchor="middle" x="1350" y="-99.8" font-family="Times,serif" font-size="14.00">UiImageCarouselComponent</text>
</g>
<!-- UiModule -->
<g id="node9" class="node">
<title>UiModule</title>
<polygon fill="#8dd3c7" stroke="black" points="756.55,-187 753.55,-191 732.55,-191 729.55,-187 683.45,-187 683.45,-151 756.55,-151 756.55,-187"/>
<text text-anchor="middle" x="720" y="-164.8" font-family="Times,serif" font-size="14.00">UiModule</text>
</g>
<!-- UiImageCarouselComponent&#45;&gt;UiModule -->
<g id="edge1" class="edge">
<title>UiImageCarouselComponent&#45;&gt;UiModule</title>
<path fill="none" stroke="black" d="M1350,-122.11C1350,-141.34 1350,-169 1350,-169 1350,-169 766.59,-169 766.59,-169"/>
<polygon fill="black" stroke="black" points="766.59,-165.5 756.59,-169 766.59,-172.5 766.59,-165.5"/>
</g>
<!-- UiNavbarComponent -->
<g id="node2" class="node">
<title>UiNavbarComponent</title>
<polygon fill="#ffffb3" stroke="black" points="1242.03,-122 1105.97,-122 1105.97,-86 1242.03,-86 1242.03,-122"/>
<text text-anchor="middle" x="1174" y="-99.8" font-family="Times,serif" font-size="14.00">UiNavbarComponent</text>
</g>
<!-- UiNavbarComponent&#45;&gt;UiModule -->
<g id="edge2" class="edge">
<title>UiNavbarComponent&#45;&gt;UiModule</title>
<path fill="none" stroke="black" d="M1136.76,-122.02C1136.76,-139.37 1136.76,-163 1136.76,-163 1136.76,-163 766.62,-163 766.62,-163"/>
<polygon fill="black" stroke="black" points="766.62,-159.5 756.62,-163 766.62,-166.5 766.62,-159.5"/>
</g>
<!-- UiProductDetailComponent -->
<g id="node3" class="node">
<title>UiProductDetailComponent</title>
<polygon fill="#ffffb3" stroke="black" points="1087.59,-122 914.41,-122 914.41,-86 1087.59,-86 1087.59,-122"/>
<text text-anchor="middle" x="1001" y="-99.8" font-family="Times,serif" font-size="14.00">UiProductDetailComponent</text>
</g>
<!-- UiProductDetailComponent&#45;&gt;UiModule -->
<g id="edge3" class="edge">
<title>UiProductDetailComponent&#45;&gt;UiModule</title>
<path fill="none" stroke="black" d="M940.24,-122.24C940.24,-137.57 940.24,-157 940.24,-157 940.24,-157 766.86,-157 766.86,-157"/>
<polygon fill="black" stroke="black" points="766.86,-153.5 756.86,-157 766.86,-160.5 766.86,-153.5"/>
</g>
<!-- UiProductListComponent -->
<g id="node4" class="node">
<title>UiProductListComponent</title>
<polygon fill="#ffffb3" stroke="black" points="896.16,-122 735.84,-122 735.84,-86 896.16,-86 896.16,-122"/>
<text text-anchor="middle" x="816" y="-99.8" font-family="Times,serif" font-size="14.00">UiProductListComponent</text>
</g>
<!-- UiProductListComponent&#45;&gt;UiModule -->
<g id="edge4" class="edge">
<title>UiProductListComponent&#45;&gt;UiModule</title>
<path fill="none" stroke="black" d="M746.22,-122.11C746.22,-122.11 746.22,-140.99 746.22,-140.99"/>
<polygon fill="black" stroke="black" points="742.72,-140.99 746.22,-150.99 749.72,-140.99 742.72,-140.99"/>
</g>
<!-- UiProductListItemComponent -->
<g id="node5" class="node">
<title>UiProductListItemComponent</title>
<polygon fill="#ffffb3" stroke="black" points="718.31,-122 531.69,-122 531.69,-86 718.31,-86 718.31,-122"/>
<text text-anchor="middle" x="625" y="-99.8" font-family="Times,serif" font-size="14.00">UiProductListItemComponent</text>
</g>
<!-- UiProductListItemComponent&#45;&gt;UiModule -->
<g id="edge5" class="edge">
<title>UiProductListItemComponent&#45;&gt;UiModule</title>
<path fill="none" stroke="black" d="M700.69,-122.11C700.69,-122.11 700.69,-140.99 700.69,-140.99"/>
<polygon fill="black" stroke="black" points="697.19,-140.99 700.69,-150.99 704.19,-140.99 697.19,-140.99"/>
</g>
<!-- UiRatingComponent -->
<g id="node6" class="node">
<title>UiRatingComponent</title>
<polygon fill="#ffffb3" stroke="black" points="514.16,-122 381.84,-122 381.84,-86 514.16,-86 514.16,-122"/>
<text text-anchor="middle" x="448" y="-99.8" font-family="Times,serif" font-size="14.00">UiRatingComponent</text>
</g>
<!-- UiRatingComponent&#45;&gt;UiModule -->
<g id="edge6" class="edge">
<title>UiRatingComponent&#45;&gt;UiModule</title>
<path fill="none" stroke="black" d="M482.13,-122.24C482.13,-137.57 482.13,-157 482.13,-157 482.13,-157 673.35,-157 673.35,-157"/>
<polygon fill="black" stroke="black" points="673.35,-160.5 683.35,-157 673.35,-153.5 673.35,-160.5"/>
</g>
<!-- UiSearchbarComponent -->
<g id="node7" class="node">
<title>UiSearchbarComponent</title>
<polygon fill="#ffffb3" stroke="black" points="363.79,-122 212.21,-122 212.21,-86 363.79,-86 363.79,-122"/>
<text text-anchor="middle" x="288" y="-99.8" font-family="Times,serif" font-size="14.00">UiSearchbarComponent</text>
</g>
<!-- UiSearchbarComponent&#45;&gt;UiModule -->
<g id="edge7" class="edge">
<title>UiSearchbarComponent&#45;&gt;UiModule</title>
<path fill="none" stroke="black" d="M320.62,-122.02C320.62,-139.37 320.62,-163 320.62,-163 320.62,-163 673.14,-163 673.14,-163"/>
<polygon fill="black" stroke="black" points="673.14,-166.5 683.14,-163 673.14,-159.5 673.14,-166.5"/>
</g>
<!-- UiSimpleImageComponent -->
<g id="node8" class="node">
<title>UiSimpleImageComponent</title>
<polygon fill="#ffffb3" stroke="black" points="193.98,-122 24.02,-122 24.02,-86 193.98,-86 193.98,-122"/>
<text text-anchor="middle" x="109" y="-99.8" font-family="Times,serif" font-size="14.00">UiSimpleImageComponent</text>
</g>
<!-- UiSimpleImageComponent&#45;&gt;UiModule -->
<g id="edge8" class="edge">
<title>UiSimpleImageComponent&#45;&gt;UiModule</title>
<path fill="none" stroke="black" d="M109,-122.11C109,-141.34 109,-169 109,-169 109,-169 673.16,-169 673.16,-169"/>
<polygon fill="black" stroke="black" points="673.16,-172.5 683.16,-169 673.16,-165.5 673.16,-172.5"/>
</g>
<!-- UiImageCarouselComponent  -->
<g id="node10" class="node">
<title>UiImageCarouselComponent </title>
<polygon fill="#fb8072" stroke="black" points="1167.57,-252 984.43,-252 984.43,-216 1167.57,-216 1167.57,-252"/>
<text text-anchor="middle" x="1076" y="-229.8" font-family="Times,serif" font-size="14.00">UiImageCarouselComponent </text>
</g>
<!-- UiModule&#45;&gt;UiImageCarouselComponent  -->
<g id="edge9" class="edge">
<title>UiModule&#45;&gt;UiImageCarouselComponent </title>
<path fill="none" stroke="black" stroke-dasharray="5,2" d="M756.85,-175C840.18,-175 1035.88,-175 1035.88,-175 1035.88,-175 1035.88,-205.98 1035.88,-205.98"/>
<polygon fill="black" stroke="black" points="1032.38,-205.98 1035.88,-215.98 1039.38,-205.98 1032.38,-205.98"/>
</g>
<!-- UiNavbarComponent  -->
<g id="node11" class="node">
<title>UiNavbarComponent </title>
<polygon fill="#fb8072" stroke="black" points="966.03,-252 825.97,-252 825.97,-216 966.03,-216 966.03,-252"/>
<text text-anchor="middle" x="896" y="-229.8" font-family="Times,serif" font-size="14.00">UiNavbarComponent </text>
</g>
<!-- UiModule&#45;&gt;UiNavbarComponent  -->
<g id="edge10" class="edge">
<title>UiModule&#45;&gt;UiNavbarComponent </title>
<path fill="none" stroke="black" stroke-dasharray="5,2" d="M756.72,-181C798.54,-181 861.16,-181 861.16,-181 861.16,-181 861.16,-205.76 861.16,-205.76"/>
<polygon fill="black" stroke="black" points="857.66,-205.76 861.16,-215.76 864.66,-205.76 857.66,-205.76"/>
</g>
<!-- UiProductDetailComponent  -->
<g id="node12" class="node">
<title>UiProductDetailComponent </title>
<polygon fill="#fb8072" stroke="black" points="808.09,-252 631.91,-252 631.91,-216 808.09,-216 808.09,-252"/>
<text text-anchor="middle" x="720" y="-229.8" font-family="Times,serif" font-size="14.00">UiProductDetailComponent </text>
</g>
<!-- UiModule&#45;&gt;UiProductDetailComponent  -->
<g id="edge11" class="edge">
<title>UiModule&#45;&gt;UiProductDetailComponent </title>
<path fill="none" stroke="black" stroke-dasharray="5,2" d="M720,-187.11C720,-187.11 720,-205.99 720,-205.99"/>
<polygon fill="black" stroke="black" points="716.5,-205.99 720,-215.99 723.5,-205.99 716.5,-205.99"/>
</g>
<!-- UiProductListComponent  -->
<g id="node13" class="node">
<title>UiProductListComponent </title>
<polygon fill="#fb8072" stroke="black" points="614.16,-252 449.84,-252 449.84,-216 614.16,-216 614.16,-252"/>
<text text-anchor="middle" x="532" y="-229.8" font-family="Times,serif" font-size="14.00">UiProductListComponent </text>
</g>
<!-- UiModule&#45;&gt;UiProductListComponent  -->
<g id="edge12" class="edge">
<title>UiModule&#45;&gt;UiProductListComponent </title>
<path fill="none" stroke="black" stroke-dasharray="5,2" d="M683.28,-181C639.72,-181 572.96,-181 572.96,-181 572.96,-181 572.96,-205.76 572.96,-205.76"/>
<polygon fill="black" stroke="black" points="569.46,-205.76 572.96,-215.76 576.46,-205.76 569.46,-205.76"/>
</g>
<!-- UiSearchbarComponent  -->
<g id="node14" class="node">
<title>UiSearchbarComponent </title>
<polygon fill="#fb8072" stroke="black" points="432.29,-252 277.71,-252 277.71,-216 432.29,-216 432.29,-252"/>
<text text-anchor="middle" x="355" y="-229.8" font-family="Times,serif" font-size="14.00">UiSearchbarComponent </text>
</g>
<!-- UiModule&#45;&gt;UiSearchbarComponent  -->
<g id="edge13" class="edge">
<title>UiModule&#45;&gt;UiSearchbarComponent </title>
<path fill="none" stroke="black" stroke-dasharray="5,2" d="M683.18,-175C600.45,-175 407.03,-175 407.03,-175 407.03,-175 407.03,-205.98 407.03,-205.98"/>
<polygon fill="black" stroke="black" points="403.53,-205.98 407.03,-215.98 410.53,-205.98 403.53,-205.98"/>
</g>
</g>
</svg>
