<?xml version="1.0" encoding="UTF-8" standalone="no"?>
<!DOCTYPE svg PUBLIC "-//W3C//DTD SVG 1.1//EN"
 "http://www.w3.org/Graphics/SVG/1.1/DTD/svg11.dtd">
<!-- Generated by graphviz version 2.47.0 (20210316.0004)
 -->
<!-- Title: dependencies Pages: 1 -->
<svg width="1628pt" height="284pt"
 viewBox="0.00 0.00 1628.00 284.00" xmlns="http://www.w3.org/2000/svg" xmlns:xlink="http://www.w3.org/1999/xlink">
<g id="graph0" class="graph" transform="scale(1 1) rotate(0) translate(4 280)">
<title>dependencies</title>
<polygon fill="white" stroke="transparent" points="-4,4 -4,-280 1624,-280 1624,4 -4,4"/>
<text text-anchor="start" x="789.01" y="-42.4" font-family="Times-12" font-weight="bold" font-size="14.00">Legend</text>
<polygon fill="#ffffb3" stroke="transparent" points="576,-10 576,-30 596,-30 596,-10 576,-10"/>
<text text-anchor="start" x="599.63" y="-15.4" font-family="Times-12" font-size="14.00"> &#160;Declarations</text>
<polygon fill="#8dd3c7" stroke="transparent" points="689,-10 689,-30 709,-30 709,-10 689,-10"/>
<text text-anchor="start" x="712.73" y="-15.4" font-family="Times-12" font-size="14.00"> &#160;Module</text>
<polygon fill="#80b1d3" stroke="transparent" points="775,-10 775,-30 795,-30 795,-10 775,-10"/>
<text text-anchor="start" x="798.78" y="-15.4" font-family="Times-12" font-size="14.00"> &#160;Bootstrap</text>
<polygon fill="#fdb462" stroke="transparent" points="872,-10 872,-30 892,-30 892,-10 872,-10"/>
<text text-anchor="start" x="895.67" y="-15.4" font-family="Times-12" font-size="14.00"> &#160;Providers</text>
<polygon fill="#fb8072" stroke="transparent" points="968,-10 968,-30 988,-30 988,-10 968,-10"/>
<text text-anchor="start" x="991.73" y="-15.4" font-family="Times-12" font-size="14.00"> &#160;Exports</text>
<g id="clust1" class="cluster">
<title>cluster_UiModule</title>
<polygon fill="none" stroke="black" stroke-dasharray="1,5" points="8,-70 8,-268 1612,-268 1612,-70 8,-70"/>
</g>
<g id="clust13" class="cluster">
<title>cluster_UiModule_exports</title>
<polygon fill="none" stroke="black" points="264,-208 264,-260 1331,-260 1331,-208 264,-208"/>
</g>
<g id="clust2" class="cluster">
<title>cluster_UiModule_declarations</title>
<polygon fill="none" stroke="black" points="16,-78 16,-130 1604,-130 1604,-78 16,-78"/>
</g>
<!-- UiImageCarouselComponent -->
<g id="node1" class="node">
<title>UiImageCarouselComponent</title>
<polygon fill="#ffffb3" stroke="black" points="1596.07,-122 1415.93,-122 1415.93,-86 1596.07,-86 1596.07,-122"/>
<text text-anchor="middle" x="1506" y="-99.8" font-family="Times,serif" font-size="14.00">UiImageCarouselComponent</text>
</g>
<!-- UiModule -->
<g id="node10" class="node">
<title>UiModule</title>
<polygon fill="#8dd3c7" stroke="black" points="817.55,-187 814.55,-191 793.55,-191 790.55,-187 744.45,-187 744.45,-151 817.55,-151 817.55,-187"/>
<text text-anchor="middle" x="781" y="-164.8" font-family="Times,serif" font-size="14.00">UiModule</text>
</g>
<!-- UiImageCarouselComponent&#45;&gt;UiModule -->
<g id="edge1" class="edge">
<title>UiImageCarouselComponent&#45;&gt;UiModule</title>
<path fill="none" stroke="black" d="M1506,-122.22C1506,-142.37 1506,-172 1506,-172 1506,-172 827.95,-172 827.95,-172"/>
<polygon fill="black" stroke="black" points="827.95,-168.5 817.95,-172 827.95,-175.5 827.95,-168.5"/>
</g>
<!-- UiNavbarComponent -->
<g id="node2" class="node">
<title>UiNavbarComponent</title>
<polygon fill="#ffffb3" stroke="black" points="1398.03,-122 1261.97,-122 1261.97,-86 1398.03,-86 1398.03,-122"/>
<text text-anchor="middle" x="1330" y="-99.8" font-family="Times,serif" font-size="14.00">UiNavbarComponent</text>
</g>
<!-- UiNavbarComponent&#45;&gt;UiModule -->
<g id="edge2" class="edge">
<title>UiNavbarComponent&#45;&gt;UiModule</title>
<path fill="none" stroke="black" d="M1292.26,-122.22C1292.26,-140.83 1292.26,-167 1292.26,-167 1292.26,-167 827.77,-167 827.77,-167"/>
<polygon fill="black" stroke="black" points="827.77,-163.5 817.77,-167 827.77,-170.5 827.77,-163.5"/>
</g>
<!-- UiProductDetailComponent -->
<g id="node3" class="node">
<title>UiProductDetailComponent</title>
<polygon fill="#ffffb3" stroke="black" points="1243.59,-122 1070.41,-122 1070.41,-86 1243.59,-86 1243.59,-122"/>
<text text-anchor="middle" x="1157" y="-99.8" font-family="Times,serif" font-size="14.00">UiProductDetailComponent</text>
</g>
<!-- UiProductDetailComponent&#45;&gt;UiModule -->
<g id="edge3" class="edge">
<title>UiProductDetailComponent&#45;&gt;UiModule</title>
<path fill="none" stroke="black" d="M1095.74,-122.03C1095.74,-139.06 1095.74,-162 1095.74,-162 1095.74,-162 827.72,-162 827.72,-162"/>
<polygon fill="black" stroke="black" points="827.72,-158.5 817.72,-162 827.72,-165.5 827.72,-158.5"/>
</g>
<!-- UiProductListComponent -->
<g id="node4" class="node">
<title>UiProductListComponent</title>
<polygon fill="#ffffb3" stroke="black" points="1052.16,-122 891.84,-122 891.84,-86 1052.16,-86 1052.16,-122"/>
<text text-anchor="middle" x="972" y="-99.8" font-family="Times,serif" font-size="14.00">UiProductListComponent</text>
</g>
<!-- UiProductListComponent&#45;&gt;UiModule -->
<g id="edge4" class="edge">
<title>UiProductListComponent&#45;&gt;UiModule</title>
<path fill="none" stroke="black" d="M927.48,-122.24C927.48,-137.57 927.48,-157 927.48,-157 927.48,-157 827.59,-157 827.59,-157"/>
<polygon fill="black" stroke="black" points="827.59,-153.5 817.59,-157 827.59,-160.5 827.59,-153.5"/>
</g>
<!-- UiProductListItemComponent -->
<g id="node5" class="node">
<title>UiProductListItemComponent</title>
<polygon fill="#ffffb3" stroke="black" points="874.31,-122 687.69,-122 687.69,-86 874.31,-86 874.31,-122"/>
<text text-anchor="middle" x="781" y="-99.8" font-family="Times,serif" font-size="14.00">UiProductListItemComponent</text>
</g>
<!-- UiProductListItemComponent&#45;&gt;UiModule -->
<g id="edge5" class="edge">
<title>UiProductListItemComponent&#45;&gt;UiModule</title>
<path fill="none" stroke="black" d="M781,-122.11C781,-122.11 781,-140.99 781,-140.99"/>
<polygon fill="black" stroke="black" points="777.5,-140.99 781,-150.99 784.5,-140.99 777.5,-140.99"/>
</g>
<!-- UiRatingComponent -->
<g id="node6" class="node">
<title>UiRatingComponent</title>
<polygon fill="#ffffb3" stroke="black" points="670.16,-122 537.84,-122 537.84,-86 670.16,-86 670.16,-122"/>
<text text-anchor="middle" x="604" y="-99.8" font-family="Times,serif" font-size="14.00">UiRatingComponent</text>
</g>
<!-- UiRatingComponent&#45;&gt;UiModule -->
<g id="edge6" class="edge">
<title>UiRatingComponent&#45;&gt;UiModule</title>
<path fill="none" stroke="black" d="M637.63,-122.24C637.63,-137.57 637.63,-157 637.63,-157 637.63,-157 734.45,-157 734.45,-157"/>
<polygon fill="black" stroke="black" points="734.45,-160.5 744.45,-157 734.45,-153.5 734.45,-160.5"/>
</g>
<!-- UiSearchbarComponent -->
<g id="node7" class="node">
<title>UiSearchbarComponent</title>
<polygon fill="#ffffb3" stroke="black" points="519.79,-122 368.21,-122 368.21,-86 519.79,-86 519.79,-122"/>
<text text-anchor="middle" x="444" y="-99.8" font-family="Times,serif" font-size="14.00">UiSearchbarComponent</text>
</g>
<!-- UiSearchbarComponent&#45;&gt;UiModule -->
<g id="edge7" class="edge">
<title>UiSearchbarComponent&#45;&gt;UiModule</title>
<path fill="none" stroke="black" d="M476.12,-122.03C476.12,-139.06 476.12,-162 476.12,-162 476.12,-162 734.22,-162 734.22,-162"/>
<polygon fill="black" stroke="black" points="734.22,-165.5 744.22,-162 734.22,-158.5 734.22,-165.5"/>
</g>
<!-- UiSimpleImageComponent -->
<g id="node8" class="node">
<title>UiSimpleImageComponent</title>
<polygon fill="#ffffb3" stroke="black" points="349.98,-122 180.02,-122 180.02,-86 349.98,-86 349.98,-122"/>
<text text-anchor="middle" x="265" y="-99.8" font-family="Times,serif" font-size="14.00">UiSimpleImageComponent</text>
</g>
<!-- UiSimpleImageComponent&#45;&gt;UiModule -->
<g id="edge8" class="edge">
<title>UiSimpleImageComponent&#45;&gt;UiModule</title>
<path fill="none" stroke="black" d="M310.91,-122.22C310.91,-140.83 310.91,-167 310.91,-167 310.91,-167 734.11,-167 734.11,-167"/>
<polygon fill="black" stroke="black" points="734.11,-170.5 744.11,-167 734.11,-163.5 734.11,-170.5"/>
</g>
<!-- UiZoomableDirective -->
<g id="node9" class="node">
<title>UiZoomableDirective</title>
<polygon fill="#ffffb3" stroke="black" points="162.34,-122 23.66,-122 23.66,-86 162.34,-86 162.34,-122"/>
<text text-anchor="middle" x="93" y="-99.8" font-family="Times,serif" font-size="14.00">UiZoomableDirective</text>
</g>
<!-- UiZoomableDirective&#45;&gt;UiModule -->
<g id="edge9" class="edge">
<title>UiZoomableDirective&#45;&gt;UiModule</title>
<path fill="none" stroke="black" d="M93,-122.22C93,-142.37 93,-172 93,-172 93,-172 734.01,-172 734.01,-172"/>
<polygon fill="black" stroke="black" points="734.01,-175.5 744.01,-172 734.01,-168.5 734.01,-175.5"/>
</g>
<!-- UiImageCarouselComponent  -->
<g id="node11" class="node">
<title>UiImageCarouselComponent </title>
<polygon fill="#fb8072" stroke="black" points="1322.57,-252 1139.43,-252 1139.43,-216 1322.57,-216 1322.57,-252"/>
<text text-anchor="middle" x="1231" y="-229.8" font-family="Times,serif" font-size="14.00">UiImageCarouselComponent </text>
</g>
<!-- UiModule&#45;&gt;UiImageCarouselComponent  -->
<g id="edge10" class="edge">
<title>UiModule&#45;&gt;UiImageCarouselComponent </title>
<path fill="none" stroke="black" stroke-dasharray="5,2" d="M817.78,-177C918.51,-177 1191.38,-177 1191.38,-177 1191.38,-177 1191.38,-205.96 1191.38,-205.96"/>
<polygon fill="black" stroke="black" points="1187.88,-205.96 1191.38,-215.96 1194.88,-205.96 1187.88,-205.96"/>
</g>
<!-- UiNavbarComponent  -->
<g id="node12" class="node">
<title>UiNavbarComponent </title>
<polygon fill="#fb8072" stroke="black" points="1121.03,-252 980.97,-252 980.97,-216 1121.03,-216 1121.03,-252"/>
<text text-anchor="middle" x="1051" y="-229.8" font-family="Times,serif" font-size="14.00">UiNavbarComponent </text>
</g>
<!-- UiModule&#45;&gt;UiNavbarComponent  -->
<g id="edge11" class="edge">
<title>UiModule&#45;&gt;UiNavbarComponent </title>
<path fill="none" stroke="black" stroke-dasharray="5,2" d="M817.56,-182C883.75,-182 1016.66,-182 1016.66,-182 1016.66,-182 1016.66,-205.81 1016.66,-205.81"/>
<polygon fill="black" stroke="black" points="1013.16,-205.81 1016.66,-215.81 1020.16,-205.81 1013.16,-205.81"/>
</g>
<!-- UiProductDetailComponent  -->
<g id="node13" class="node">
<title>UiProductDetailComponent </title>
<polygon fill="#fb8072" stroke="black" points="963.09,-252 786.91,-252 786.91,-216 963.09,-216 963.09,-252"/>
<text text-anchor="middle" x="875" y="-229.8" font-family="Times,serif" font-size="14.00">UiProductDetailComponent </text>
</g>
<!-- UiModule&#45;&gt;UiProductDetailComponent  -->
<g id="edge12" class="edge">
<title>UiModule&#45;&gt;UiProductDetailComponent </title>
<path fill="none" stroke="black" stroke-dasharray="5,2" d="M802.24,-187.11C802.24,-187.11 802.24,-205.99 802.24,-205.99"/>
<polygon fill="black" stroke="black" points="798.74,-205.99 802.24,-215.99 805.74,-205.99 798.74,-205.99"/>
</g>
<!-- UiProductListComponent  -->
<g id="node14" class="node">
<title>UiProductListComponent </title>
<polygon fill="#fb8072" stroke="black" points="769.16,-252 604.84,-252 604.84,-216 769.16,-216 769.16,-252"/>
<text text-anchor="middle" x="687" y="-229.8" font-family="Times,serif" font-size="14.00">UiProductListComponent </text>
</g>
<!-- UiModule&#45;&gt;UiProductListComponent  -->
<g id="edge13" class="edge">
<title>UiModule&#45;&gt;UiProductListComponent </title>
<path fill="none" stroke="black" stroke-dasharray="5,2" d="M756.65,-187.11C756.65,-187.11 756.65,-205.99 756.65,-205.99"/>
<polygon fill="black" stroke="black" points="753.15,-205.99 756.65,-215.99 760.15,-205.99 753.15,-205.99"/>
</g>
<!-- UiSearchbarComponent  -->
<g id="node15" class="node">
<title>UiSearchbarComponent </title>
<polygon fill="#fb8072" stroke="black" points="587.29,-252 432.71,-252 432.71,-216 587.29,-216 587.29,-252"/>
<text text-anchor="middle" x="510" y="-229.8" font-family="Times,serif" font-size="14.00">UiSearchbarComponent </text>
</g>
<!-- UiModule&#45;&gt;UiSearchbarComponent  -->
<g id="edge14" class="edge">
<title>UiModule&#45;&gt;UiSearchbarComponent </title>
<path fill="none" stroke="black" stroke-dasharray="5,2" d="M744.43,-182C682.24,-182 562.53,-182 562.53,-182 562.53,-182 562.53,-205.81 562.53,-205.81"/>
<polygon fill="black" stroke="black" points="559.03,-205.81 562.53,-215.81 566.03,-205.81 559.03,-205.81"/>
</g>
<!-- UiZoomableDirective  -->
<g id="node16" class="node">
<title>UiZoomableDirective </title>
<polygon fill="#fb8072" stroke="black" points="414.34,-252 271.66,-252 271.66,-216 414.34,-216 414.34,-252"/>
<text text-anchor="middle" x="343" y="-229.8" font-family="Times,serif" font-size="14.00">UiZoomableDirective </text>
</g>
<!-- UiModule&#45;&gt;UiZoomableDirective  -->
<g id="edge15" class="edge">
<title>UiModule&#45;&gt;UiZoomableDirective </title>
<path fill="none" stroke="black" stroke-dasharray="5,2" d="M744.33,-177C647.31,-177 391.26,-177 391.26,-177 391.26,-177 391.26,-205.96 391.26,-205.96"/>
<polygon fill="black" stroke="black" points="387.76,-205.96 391.26,-215.96 394.76,-205.96 387.76,-205.96"/>
</g>
</g>
</svg>
