<?xml version="1.0" encoding="UTF-8" standalone="no"?>
<!DOCTYPE svg PUBLIC "-//W3C//DTD SVG 1.1//EN"
 "http://www.w3.org/Graphics/SVG/1.1/DTD/svg11.dtd">
<!-- Generated by graphviz version 2.47.0 (20210316.0004)
 -->
<!-- Title: dependencies Pages: 1 -->
<svg width="2658pt" height="428pt"
 viewBox="0.00 0.00 2658.00 428.00" xmlns="http://www.w3.org/2000/svg" xmlns:xlink="http://www.w3.org/1999/xlink">
<g id="graph0" class="graph" transform="scale(1 1) rotate(0) translate(4 424)">
<title>dependencies</title>
<polygon fill="white" stroke="transparent" points="-4,4 -4,-424 2654,-424 2654,4 -4,4"/>
<text text-anchor="start" x="1304.01" y="-42.4" font-family="Times-12" font-weight="bold" font-size="14.00">Legend</text>
<polygon fill="#ffffb3" stroke="transparent" points="1091,-10 1091,-30 1111,-30 1111,-10 1091,-10"/>
<text text-anchor="start" x="1114.63" y="-15.4" font-family="Times-12" font-size="14.00"> &#160;Declarations</text>
<polygon fill="#8dd3c7" stroke="transparent" points="1204,-10 1204,-30 1224,-30 1224,-10 1204,-10"/>
<text text-anchor="start" x="1227.73" y="-15.4" font-family="Times-12" font-size="14.00"> &#160;Module</text>
<polygon fill="#80b1d3" stroke="transparent" points="1290,-10 1290,-30 1310,-30 1310,-10 1290,-10"/>
<text text-anchor="start" x="1313.78" y="-15.4" font-family="Times-12" font-size="14.00"> &#160;Bootstrap</text>
<polygon fill="#fdb462" stroke="transparent" points="1387,-10 1387,-30 1407,-30 1407,-10 1387,-10"/>
<text text-anchor="start" x="1410.67" y="-15.4" font-family="Times-12" font-size="14.00"> &#160;Providers</text>
<polygon fill="#fb8072" stroke="transparent" points="1483,-10 1483,-30 1503,-30 1503,-10 1483,-10"/>
<text text-anchor="start" x="1506.73" y="-15.4" font-family="Times-12" font-size="14.00"> &#160;Exports</text>
<g id="clust1" class="cluster">
<title>cluster_AppModule</title>
<polygon fill="none" stroke="black" stroke-dasharray="1,5" points="375,-214 375,-412 943,-412 943,-214 375,-214"/>
</g>
<g id="clust2" class="cluster">
<title>cluster_AppModule_declarations</title>
<polygon fill="none" stroke="black" points="813,-222 813,-274 935,-274 935,-222 813,-222"/>
</g>
<g id="clust4" class="cluster">
<title>cluster_AppModule_imports</title>
<polygon fill="none" stroke="black" points="547,-222 547,-274 805,-274 805,-222 547,-222"/>
</g>
<g id="clust6" class="cluster">
<title>cluster_AppModule_bootstrap</title>
<polygon fill="none" stroke="black" points="606,-352 606,-404 730,-404 730,-352 606,-352"/>
</g>
<g id="clust7" class="cluster">
<title>cluster_AppModule_providers</title>
<polygon fill="none" stroke="black" points="383,-222 383,-274 539,-274 539,-222 383,-222"/>
</g>
<g id="clust14" class="cluster">
<title>cluster_UiModule</title>
<polygon fill="none" stroke="black" stroke-dasharray="1,5" points="1038,-70 1038,-282 2642,-282 2642,-70 1038,-70"/>
</g>
<g id="clust15" class="cluster">
<title>cluster_UiModule_declarations</title>
<polygon fill="none" stroke="black" points="1046,-78 1046,-130 2634,-130 2634,-78 1046,-78"/>
</g>
<g id="clust26" class="cluster">
<title>cluster_UiModule_exports</title>
<polygon fill="none" stroke="black" points="1205,-222 1205,-274 2272,-274 2272,-222 1205,-222"/>
</g>
<g id="clust29" class="cluster">
<title>cluster_ViewsModule</title>
<polygon fill="none" stroke="black" stroke-dasharray="1,5" points="8,-138 8,-206 1030,-206 1030,-138 8,-138"/>
</g>
<g id="clust30" class="cluster">
<title>cluster_ViewsModule_declarations</title>
<polygon fill="none" stroke="black" points="528,-146 528,-198 1022,-198 1022,-146 528,-146"/>
</g>
<g id="clust35" class="cluster">
<title>cluster_ViewsModule_exports</title>
<polygon fill="none" stroke="black" points="16,-146 16,-198 520,-198 520,-146 16,-146"/>
</g>
<!-- AppComponent -->
<g id="node1" class="node">
<title>AppComponent</title>
<polygon fill="#ffffb3" stroke="black" points="926.94,-266 821.06,-266 821.06,-230 926.94,-230 926.94,-266"/>
<text text-anchor="middle" x="874" y="-243.8" font-family="Times,serif" font-size="14.00">AppComponent</text>
</g>
<!-- AppModule -->
<g id="node2" class="node">
<title>AppModule</title>
<polygon fill="#8dd3c7" stroke="black" points="709.66,-331 706.66,-335 685.66,-335 682.66,-331 626.34,-331 626.34,-295 709.66,-295 709.66,-331"/>
<text text-anchor="middle" x="668" y="-308.8" font-family="Times,serif" font-size="14.00">AppModule</text>
</g>
<!-- AppComponent&#45;&gt;AppModule -->
<g id="edge1" class="edge">
<title>AppComponent&#45;&gt;AppModule</title>
<path fill="none" stroke="black" d="M874,-266.11C874,-285.34 874,-313 874,-313 874,-313 719.69,-313 719.69,-313"/>
<polygon fill="black" stroke="black" points="719.69,-309.5 709.69,-313 719.69,-316.5 719.69,-309.5"/>
</g>
<!-- AppComponent  -->
<g id="node5" class="node">
<title>AppComponent </title>
<polygon fill="#80b1d3" stroke="black" points="722.44,-396 613.56,-396 613.56,-360 722.44,-360 722.44,-396"/>
<text text-anchor="middle" x="668" y="-373.8" font-family="Times,serif" font-size="14.00">AppComponent </text>
</g>
<!-- AppModule&#45;&gt;AppComponent  -->
<g id="edge4" class="edge">
<title>AppModule&#45;&gt;AppComponent </title>
<path fill="none" stroke="black" stroke-dasharray="1,5" d="M668,-331.11C668,-331.11 668,-349.99 668,-349.99"/>
<polygon fill="black" stroke="black" points="664.5,-349.99 668,-359.99 671.5,-349.99 664.5,-349.99"/>
</g>
<!-- AppRoutingModule -->
<g id="node3" class="node">
<title>AppRoutingModule</title>
<polygon fill="#8dd3c7" stroke="black" points="797.27,-266 794.27,-270 773.27,-270 770.27,-266 668.73,-266 668.73,-230 797.27,-230 797.27,-266"/>
<text text-anchor="middle" x="733" y="-243.8" font-family="Times,serif" font-size="14.00">AppRoutingModule</text>
</g>
<!-- AppRoutingModule&#45;&gt;AppModule -->
<g id="edge2" class="edge">
<title>AppRoutingModule&#45;&gt;AppModule</title>
<path fill="none" stroke="black" d="M689.22,-266.11C689.22,-266.11 689.22,-284.99 689.22,-284.99"/>
<polygon fill="black" stroke="black" points="685.72,-284.99 689.22,-294.99 692.72,-284.99 685.72,-284.99"/>
</g>
<!-- ViewsModule -->
<g id="node4" class="node">
<title>ViewsModule</title>
<polygon fill="#8dd3c7" stroke="black" points="650.81,-266 647.81,-270 626.81,-270 623.81,-266 555.19,-266 555.19,-230 650.81,-230 650.81,-266"/>
<text text-anchor="middle" x="603" y="-243.8" font-family="Times,serif" font-size="14.00">ViewsModule</text>
</g>
<!-- ViewsModule&#45;&gt;AppModule -->
<g id="edge3" class="edge">
<title>ViewsModule&#45;&gt;AppModule</title>
<path fill="none" stroke="black" d="M638.41,-266.11C638.41,-266.11 638.41,-284.99 638.41,-284.99"/>
<polygon fill="black" stroke="black" points="634.91,-284.99 638.41,-294.99 641.91,-284.99 634.91,-284.99"/>
</g>
<!-- ViewDetailComponent  -->
<g id="node26" class="node">
<title>ViewDetailComponent </title>
<polygon fill="#fb8072" stroke="black" points="511.86,-190 362.14,-190 362.14,-154 511.86,-154 511.86,-190"/>
<text text-anchor="middle" x="437" y="-167.8" font-family="Times,serif" font-size="14.00">ViewDetailComponent </text>
</g>
<!-- ViewsModule&#45;&gt;ViewDetailComponent  -->
<g id="edge25" class="edge">
<title>ViewsModule&#45;&gt;ViewDetailComponent </title>
<path fill="none" stroke="black" stroke-dasharray="5,2" d="M591.09,-229.81C591.09,-214.82 591.09,-196 591.09,-196 591.09,-196 451.32,-196 451.32,-196 451.32,-196 451.32,-195.42 451.32,-195.42"/>
<polygon fill="black" stroke="black" points="454.82,-200.19 451.32,-190.19 447.82,-200.19 454.82,-200.19"/>
</g>
<!-- ViewDiscountComponent  -->
<g id="node27" class="node">
<title>ViewDiscountComponent </title>
<polygon fill="#fb8072" stroke="black" points="343.7,-190 178.3,-190 178.3,-154 343.7,-154 343.7,-190"/>
<text text-anchor="middle" x="261" y="-167.8" font-family="Times,serif" font-size="14.00">ViewDiscountComponent </text>
</g>
<!-- ViewsModule&#45;&gt;ViewDiscountComponent  -->
<g id="edge26" class="edge">
<title>ViewsModule&#45;&gt;ViewDiscountComponent </title>
<path fill="none" stroke="black" stroke-dasharray="5,2" d="M579.17,-229.82C579.17,-216.96 579.17,-202 579.17,-202 579.17,-202 261,-202 261,-202 261,-202 261,-200.14 261,-200.14"/>
<polygon fill="black" stroke="black" points="264.5,-200.14 261,-190.14 257.5,-200.14 264.5,-200.14"/>
</g>
<!-- ViewListComponent  -->
<g id="node28" class="node">
<title>ViewListComponent </title>
<polygon fill="#fb8072" stroke="black" points="160.43,-190 23.57,-190 23.57,-154 160.43,-154 160.43,-190"/>
<text text-anchor="middle" x="92" y="-167.8" font-family="Times,serif" font-size="14.00">ViewListComponent </text>
</g>
<!-- ViewsModule&#45;&gt;ViewListComponent  -->
<g id="edge27" class="edge">
<title>ViewsModule&#45;&gt;ViewListComponent </title>
<path fill="none" stroke="black" stroke-dasharray="5,2" d="M567.26,-229.87C567.26,-219.29 567.26,-208 567.26,-208 567.26,-208 92,-208 92,-208 92,-208 92,-200.42 92,-200.42"/>
<polygon fill="black" stroke="black" points="95.5,-200.42 92,-190.42 88.5,-200.42 95.5,-200.42"/>
</g>
<!-- ProductService -->
<g id="node6" class="node">
<title>ProductService</title>
<ellipse fill="#fdb462" stroke="black" cx="461" cy="-248" rx="70.06" ry="18"/>
<text text-anchor="middle" x="461" y="-243.8" font-family="Times,serif" font-size="14.00">ProductService</text>
</g>
<!-- ProductService&#45;&gt;AppModule -->
<g id="edge5" class="edge">
<title>ProductService&#45;&gt;AppModule</title>
<path fill="none" stroke="black" d="M461,-266.11C461,-285.34 461,-313 461,-313 461,-313 616.11,-313 616.11,-313"/>
<polygon fill="black" stroke="black" points="616.11,-316.5 626.11,-313 616.11,-309.5 616.11,-316.5"/>
</g>
<!-- UiImageCarouselComponent -->
<g id="node7" class="node">
<title>UiImageCarouselComponent</title>
<polygon fill="#ffffb3" stroke="black" points="2626.07,-122 2445.93,-122 2445.93,-86 2626.07,-86 2626.07,-122"/>
<text text-anchor="middle" x="2536" y="-99.8" font-family="Times,serif" font-size="14.00">UiImageCarouselComponent</text>
</g>
<!-- UiModule -->
<g id="node16" class="node">
<title>UiModule</title>
<polygon fill="#8dd3c7" stroke="black" points="1758.55,-190 1755.55,-194 1734.55,-194 1731.55,-190 1685.45,-190 1685.45,-154 1758.55,-154 1758.55,-190"/>
<text text-anchor="middle" x="1722" y="-167.8" font-family="Times,serif" font-size="14.00">UiModule</text>
</g>
<!-- UiImageCarouselComponent&#45;&gt;UiModule -->
<g id="edge6" class="edge">
<title>UiImageCarouselComponent&#45;&gt;UiModule</title>
<path fill="none" stroke="black" d="M2536,-122.28C2536,-143.32 2536,-175 2536,-175 2536,-175 1768.56,-175 1768.56,-175"/>
<polygon fill="black" stroke="black" points="1768.56,-171.5 1758.56,-175 1768.56,-178.5 1768.56,-171.5"/>
</g>
<!-- UiNavbarComponent -->
<g id="node8" class="node">
<title>UiNavbarComponent</title>
<polygon fill="#ffffb3" stroke="black" points="2428.03,-122 2291.97,-122 2291.97,-86 2428.03,-86 2428.03,-122"/>
<text text-anchor="middle" x="2360" y="-99.8" font-family="Times,serif" font-size="14.00">UiNavbarComponent</text>
</g>
<!-- UiNavbarComponent&#45;&gt;UiModule -->
<g id="edge7" class="edge">
<title>UiNavbarComponent&#45;&gt;UiModule</title>
<path fill="none" stroke="black" d="M2360,-122.03C2360,-141.58 2360,-170 2360,-170 2360,-170 1768.59,-170 1768.59,-170"/>
<polygon fill="black" stroke="black" points="1768.59,-166.5 1758.59,-170 1768.59,-173.5 1768.59,-166.5"/>
</g>
<!-- UiProductDetailComponent -->
<g id="node9" class="node">
<title>UiProductDetailComponent</title>
<polygon fill="#ffffb3" stroke="black" points="2273.59,-122 2100.41,-122 2100.41,-86 2273.59,-86 2273.59,-122"/>
<text text-anchor="middle" x="2187" y="-99.8" font-family="Times,serif" font-size="14.00">UiProductDetailComponent</text>
</g>
<!-- UiProductDetailComponent&#45;&gt;UiModule -->
<g id="edge8" class="edge">
<title>UiProductDetailComponent&#45;&gt;UiModule</title>
<path fill="none" stroke="black" d="M2182.12,-122.3C2182.12,-140.27 2182.12,-165 2182.12,-165 2182.12,-165 1768.88,-165 1768.88,-165"/>
<polygon fill="black" stroke="black" points="1768.88,-161.5 1758.88,-165 1768.88,-168.5 1768.88,-161.5"/>
</g>
<!-- UiProductListComponent -->
<g id="node10" class="node">
<title>UiProductListComponent</title>
<polygon fill="#ffffb3" stroke="black" points="2082.16,-122 1921.84,-122 1921.84,-86 2082.16,-86 2082.16,-122"/>
<text text-anchor="middle" x="2002" y="-99.8" font-family="Times,serif" font-size="14.00">UiProductListComponent</text>
</g>
<!-- UiProductListComponent&#45;&gt;UiModule -->
<g id="edge9" class="edge">
<title>UiProductListComponent&#45;&gt;UiModule</title>
<path fill="none" stroke="black" d="M1968.66,-122.03C1968.66,-138.4 1968.66,-160 1968.66,-160 1968.66,-160 1768.66,-160 1768.66,-160"/>
<polygon fill="black" stroke="black" points="1768.66,-156.5 1758.66,-160 1768.66,-163.5 1768.66,-156.5"/>
</g>
<!-- UiProductListItemComponent -->
<g id="node11" class="node">
<title>UiProductListItemComponent</title>
<polygon fill="#ffffb3" stroke="black" points="1904.31,-122 1717.69,-122 1717.69,-86 1904.31,-86 1904.31,-122"/>
<text text-anchor="middle" x="1811" y="-99.8" font-family="Times,serif" font-size="14.00">UiProductListItemComponent</text>
</g>
<!-- UiProductListItemComponent&#45;&gt;UiModule -->
<g id="edge10" class="edge">
<title>UiProductListItemComponent&#45;&gt;UiModule</title>
<path fill="none" stroke="black" d="M1738.31,-122.22C1738.31,-122.22 1738.31,-143.73 1738.31,-143.73"/>
<polygon fill="black" stroke="black" points="1734.81,-143.73 1738.31,-153.73 1741.81,-143.73 1734.81,-143.73"/>
</g>
<!-- UiRatingComponent -->
<g id="node12" class="node">
<title>UiRatingComponent</title>
<polygon fill="#ffffb3" stroke="black" points="1700.16,-122 1567.84,-122 1567.84,-86 1700.16,-86 1700.16,-122"/>
<text text-anchor="middle" x="1634" y="-99.8" font-family="Times,serif" font-size="14.00">UiRatingComponent</text>
</g>
<!-- UiRatingComponent&#45;&gt;UiModule -->
<g id="edge11" class="edge">
<title>UiRatingComponent&#45;&gt;UiModule</title>
<path fill="none" stroke="black" d="M1692.78,-122.22C1692.78,-122.22 1692.78,-143.73 1692.78,-143.73"/>
<polygon fill="black" stroke="black" points="1689.28,-143.73 1692.78,-153.73 1696.28,-143.73 1689.28,-143.73"/>
</g>
<!-- UiSearchbarComponent -->
<g id="node13" class="node">
<title>UiSearchbarComponent</title>
<polygon fill="#ffffb3" stroke="black" points="1549.79,-122 1398.21,-122 1398.21,-86 1549.79,-86 1549.79,-122"/>
<text text-anchor="middle" x="1474" y="-99.8" font-family="Times,serif" font-size="14.00">UiSearchbarComponent</text>
</g>
<!-- UiSearchbarComponent&#45;&gt;UiModule -->
<g id="edge12" class="edge">
<title>UiSearchbarComponent&#45;&gt;UiModule</title>
<path fill="none" stroke="black" d="M1537.16,-122.03C1537.16,-138.4 1537.16,-160 1537.16,-160 1537.16,-160 1675.04,-160 1675.04,-160"/>
<polygon fill="black" stroke="black" points="1675.04,-163.5 1685.04,-160 1675.04,-156.5 1675.04,-163.5"/>
</g>
<!-- UiSimpleImageComponent -->
<g id="node14" class="node">
<title>UiSimpleImageComponent</title>
<polygon fill="#ffffb3" stroke="black" points="1379.98,-122 1210.02,-122 1210.02,-86 1379.98,-86 1379.98,-122"/>
<text text-anchor="middle" x="1295" y="-99.8" font-family="Times,serif" font-size="14.00">UiSimpleImageComponent</text>
</g>
<!-- UiSimpleImageComponent&#45;&gt;UiModule -->
<g id="edge13" class="edge">
<title>UiSimpleImageComponent&#45;&gt;UiModule</title>
<path fill="none" stroke="black" d="M1364.39,-122.27C1364.39,-140.56 1364.39,-166 1364.39,-166 1364.39,-166 1675.41,-166 1675.41,-166"/>
<polygon fill="black" stroke="black" points="1675.41,-169.5 1685.41,-166 1675.41,-162.5 1675.41,-169.5"/>
</g>
<!-- UiZoomableDirective -->
<g id="node15" class="node">
<title>UiZoomableDirective</title>
<polygon fill="#ffffb3" stroke="black" points="1192.34,-122 1053.66,-122 1053.66,-86 1192.34,-86 1192.34,-122"/>
<text text-anchor="middle" x="1123" y="-99.8" font-family="Times,serif" font-size="14.00">UiZoomableDirective</text>
</g>
<!-- UiZoomableDirective&#45;&gt;UiModule -->
<g id="edge14" class="edge">
<title>UiZoomableDirective&#45;&gt;UiModule</title>
<path fill="none" stroke="black" d="M1123,-122.22C1123,-142.37 1123,-172 1123,-172 1123,-172 1675.43,-172 1675.43,-172"/>
<polygon fill="black" stroke="black" points="1675.43,-175.5 1685.43,-172 1675.43,-168.5 1675.43,-175.5"/>
</g>
<!-- UiModule&#45;&gt;ViewsModule -->
<g id="edge24" class="edge">
<title>UiModule&#45;&gt;ViewsModule</title>
<path fill="none" stroke="black" d="M1693.51,-190.24C1693.51,-205.57 1693.51,-225 1693.51,-225 1693.51,-225 638.74,-225 638.74,-225 638.74,-225 638.74,-225.49 638.74,-225.49"/>
<polygon fill="black" stroke="black" points="635.24,-219.88 638.74,-229.88 642.24,-219.88 635.24,-219.88"/>
</g>
<!-- UiImageCarouselComponent  -->
<g id="node17" class="node">
<title>UiImageCarouselComponent </title>
<polygon fill="#fb8072" stroke="black" points="2263.57,-266 2080.43,-266 2080.43,-230 2263.57,-230 2263.57,-266"/>
<text text-anchor="middle" x="2172" y="-243.8" font-family="Times,serif" font-size="14.00">UiImageCarouselComponent </text>
</g>
<!-- UiModule&#45;&gt;UiImageCarouselComponent  -->
<g id="edge15" class="edge">
<title>UiModule&#45;&gt;UiImageCarouselComponent </title>
<path fill="none" stroke="black" stroke-dasharray="5,2" d="M1758.77,-180C1852.2,-180 2091.39,-180 2091.39,-180 2091.39,-180 2091.39,-219.78 2091.39,-219.78"/>
<polygon fill="black" stroke="black" points="2087.89,-219.78 2091.39,-229.78 2094.89,-219.78 2087.89,-219.78"/>
</g>
<!-- UiNavbarComponent  -->
<g id="node18" class="node">
<title>UiNavbarComponent </title>
<polygon fill="#fb8072" stroke="black" points="2062.03,-266 1921.97,-266 1921.97,-230 2062.03,-230 2062.03,-266"/>
<text text-anchor="middle" x="1992" y="-243.8" font-family="Times,serif" font-size="14.00">UiNavbarComponent </text>
</g>
<!-- UiModule&#45;&gt;UiNavbarComponent  -->
<g id="edge16" class="edge">
<title>UiModule&#45;&gt;UiNavbarComponent </title>
<path fill="none" stroke="black" stroke-dasharray="5,2" d="M1758.56,-185C1837.19,-185 2015.34,-185 2015.34,-185 2015.34,-185 2015.34,-219.78 2015.34,-219.78"/>
<polygon fill="black" stroke="black" points="2011.84,-219.78 2015.34,-229.78 2018.84,-219.78 2011.84,-219.78"/>
</g>
<!-- UiProductDetailComponent  -->
<g id="node19" class="node">
<title>UiProductDetailComponent </title>
<polygon fill="#fb8072" stroke="black" points="1904.09,-266 1727.91,-266 1727.91,-230 1904.09,-230 1904.09,-266"/>
<text text-anchor="middle" x="1816" y="-243.8" font-family="Times,serif" font-size="14.00">UiProductDetailComponent </text>
</g>
<!-- UiModule&#45;&gt;UiProductDetailComponent  -->
<g id="edge17" class="edge">
<title>UiModule&#45;&gt;UiProductDetailComponent </title>
<path fill="none" stroke="black" stroke-dasharray="5,2" d="M1743.24,-190.01C1743.24,-190.01 1743.24,-219.85 1743.24,-219.85"/>
<polygon fill="black" stroke="black" points="1739.74,-219.85 1743.24,-229.85 1746.74,-219.85 1739.74,-219.85"/>
</g>
<!-- UiProductListComponent  -->
<g id="node20" class="node">
<title>UiProductListComponent </title>
<polygon fill="#fb8072" stroke="black" points="1710.16,-266 1545.84,-266 1545.84,-230 1710.16,-230 1710.16,-266"/>
<text text-anchor="middle" x="1628" y="-243.8" font-family="Times,serif" font-size="14.00">UiProductListComponent </text>
</g>
<!-- UiModule&#45;&gt;UiProductListComponent  -->
<g id="edge18" class="edge">
<title>UiModule&#45;&gt;UiProductListComponent </title>
<path fill="none" stroke="black" stroke-dasharray="5,2" d="M1701.79,-190.01C1701.79,-190.01 1701.79,-219.85 1701.79,-219.85"/>
<polygon fill="black" stroke="black" points="1698.29,-219.85 1701.79,-229.85 1705.29,-219.85 1698.29,-219.85"/>
</g>
<!-- UiSearchbarComponent  -->
<g id="node21" class="node">
<title>UiSearchbarComponent </title>
<polygon fill="#fb8072" stroke="black" points="1528.29,-266 1373.71,-266 1373.71,-230 1528.29,-230 1528.29,-266"/>
<text text-anchor="middle" x="1451" y="-243.8" font-family="Times,serif" font-size="14.00">UiSearchbarComponent </text>
</g>
<!-- UiModule&#45;&gt;UiSearchbarComponent  -->
<g id="edge19" class="edge">
<title>UiModule&#45;&gt;UiSearchbarComponent </title>
<path fill="none" stroke="black" stroke-dasharray="5,2" d="M1685.22,-184C1613.82,-184 1463.38,-184 1463.38,-184 1463.38,-184 1463.38,-219.83 1463.38,-219.83"/>
<polygon fill="black" stroke="black" points="1459.88,-219.83 1463.38,-229.83 1466.88,-219.83 1459.88,-219.83"/>
</g>
<!-- UiZoomableDirective  -->
<g id="node22" class="node">
<title>UiZoomableDirective </title>
<polygon fill="#fb8072" stroke="black" points="1355.34,-266 1212.66,-266 1212.66,-230 1355.34,-230 1355.34,-266"/>
<text text-anchor="middle" x="1284" y="-243.8" font-family="Times,serif" font-size="14.00">UiZoomableDirective </text>
</g>
<!-- UiModule&#45;&gt;UiZoomableDirective  -->
<g id="edge20" class="edge">
<title>UiModule&#45;&gt;UiZoomableDirective </title>
<path fill="none" stroke="black" stroke-dasharray="5,2" d="M1685.41,-178C1580.14,-178 1284,-178 1284,-178 1284,-178 1284,-219.97 1284,-219.97"/>
<polygon fill="black" stroke="black" points="1280.5,-219.97 1284,-229.97 1287.5,-219.97 1280.5,-219.97"/>
</g>
<!-- ViewDetailComponent -->
<g id="node23" class="node">
<title>ViewDetailComponent</title>
<polygon fill="#ffffb3" stroke="black" points="1013.86,-190 868.14,-190 868.14,-154 1013.86,-154 1013.86,-190"/>
<text text-anchor="middle" x="941" y="-167.8" font-family="Times,serif" font-size="14.00">ViewDetailComponent</text>
</g>
<!-- ViewDetailComponent&#45;&gt;ViewsModule -->
<g id="edge21" class="edge">
<title>ViewDetailComponent&#45;&gt;ViewsModule</title>
<path fill="none" stroke="black" d="M897.4,-190.04C897.4,-203.29 897.4,-219 897.4,-219 897.4,-219 626.83,-219 626.83,-219 626.83,-219 626.83,-220.08 626.83,-220.08"/>
<polygon fill="black" stroke="black" points="623.33,-219.8 626.83,-229.8 630.33,-219.8 623.33,-219.8"/>
</g>
<!-- ViewDiscountComponent -->
<g id="node24" class="node">
<title>ViewDiscountComponent</title>
<polygon fill="#ffffb3" stroke="black" points="850.2,-190 687.8,-190 687.8,-154 850.2,-154 850.2,-190"/>
<text text-anchor="middle" x="769" y="-167.8" font-family="Times,serif" font-size="14.00">ViewDiscountComponent</text>
</g>
<!-- ViewDiscountComponent&#45;&gt;ViewsModule -->
<g id="edge22" class="edge">
<title>ViewDiscountComponent&#45;&gt;ViewsModule</title>
<path fill="none" stroke="black" d="M742.64,-190.1C742.64,-201.09 742.64,-213 742.64,-213 742.64,-213 614.91,-213 614.91,-213 614.91,-213 614.91,-219.68 614.91,-219.68"/>
<polygon fill="black" stroke="black" points="611.41,-219.68 614.91,-229.68 618.41,-219.68 611.41,-219.68"/>
</g>
<!-- ViewListComponent -->
<g id="node25" class="node">
<title>ViewListComponent</title>
<polygon fill="#ffffb3" stroke="black" points="669.93,-190 536.07,-190 536.07,-154 669.93,-154 669.93,-190"/>
<text text-anchor="middle" x="603" y="-167.8" font-family="Times,serif" font-size="14.00">ViewListComponent</text>
</g>
<!-- ViewListComponent&#45;&gt;ViewsModule -->
<g id="edge23" class="edge">
<title>ViewListComponent&#45;&gt;ViewsModule</title>
<path fill="none" stroke="black" d="M603,-190.01C603,-190.01 603,-219.85 603,-219.85"/>
<polygon fill="black" stroke="black" points="599.5,-219.85 603,-229.85 606.5,-219.85 599.5,-219.85"/>
</g>
</g>
</svg>
