<?xml version="1.0" encoding="UTF-8" standalone="no"?>
<!DOCTYPE svg PUBLIC "-//W3C//DTD SVG 1.1//EN"
 "http://www.w3.org/Graphics/SVG/1.1/DTD/svg11.dtd">
<!-- Generated by graphviz version 2.47.0 (20210316.0004)
 -->
<!-- Title: dependencies Pages: 1 -->
<svg width="2502pt" height="428pt"
 viewBox="0.00 0.00 2502.00 428.00" xmlns="http://www.w3.org/2000/svg" xmlns:xlink="http://www.w3.org/1999/xlink">
<g id="graph0" class="graph" transform="scale(1 1) rotate(0) translate(4 424)">
<title>dependencies</title>
<polygon fill="white" stroke="transparent" points="-4,4 -4,-424 2498,-424 2498,4 -4,4"/>
<text text-anchor="start" x="1226.01" y="-42.4" font-family="Times-12" font-weight="bold" font-size="14.00">Legend</text>
<polygon fill="#ffffb3" stroke="transparent" points="1013,-10 1013,-30 1033,-30 1033,-10 1013,-10"/>
<text text-anchor="start" x="1036.63" y="-15.4" font-family="Times-12" font-size="14.00"> &#160;Declarations</text>
<polygon fill="#8dd3c7" stroke="transparent" points="1126,-10 1126,-30 1146,-30 1146,-10 1126,-10"/>
<text text-anchor="start" x="1149.73" y="-15.4" font-family="Times-12" font-size="14.00"> &#160;Module</text>
<polygon fill="#80b1d3" stroke="transparent" points="1212,-10 1212,-30 1232,-30 1232,-10 1212,-10"/>
<text text-anchor="start" x="1235.78" y="-15.4" font-family="Times-12" font-size="14.00"> &#160;Bootstrap</text>
<polygon fill="#fdb462" stroke="transparent" points="1309,-10 1309,-30 1329,-30 1329,-10 1309,-10"/>
<text text-anchor="start" x="1332.67" y="-15.4" font-family="Times-12" font-size="14.00"> &#160;Providers</text>
<polygon fill="#fb8072" stroke="transparent" points="1405,-10 1405,-30 1425,-30 1425,-10 1405,-10"/>
<text text-anchor="start" x="1428.73" y="-15.4" font-family="Times-12" font-size="14.00"> &#160;Exports</text>
<g id="clust1" class="cluster">
<title>cluster_AppModule</title>
<polygon fill="none" stroke="black" stroke-dasharray="1,5" points="539,-214 539,-412 943,-412 943,-214 539,-214"/>
</g>
<g id="clust2" class="cluster">
<title>cluster_AppModule_declarations</title>
<polygon fill="none" stroke="black" points="813,-222 813,-274 935,-274 935,-222 813,-222"/>
</g>
<g id="clust4" class="cluster">
<title>cluster_AppModule_imports</title>
<polygon fill="none" stroke="black" points="547,-222 547,-274 805,-274 805,-222 547,-222"/>
</g>
<g id="clust6" class="cluster">
<title>cluster_AppModule_bootstrap</title>
<polygon fill="none" stroke="black" points="671,-352 671,-404 795,-404 795,-352 671,-352"/>
</g>
<g id="clust14" class="cluster">
<title>cluster_UiModule</title>
<polygon fill="none" stroke="black" stroke-dasharray="1,5" points="1038,-70 1038,-282 2486,-282 2486,-70 1038,-70"/>
</g>
<g id="clust15" class="cluster">
<title>cluster_UiModule_declarations</title>
<polygon fill="none" stroke="black" points="1046,-78 1046,-130 2478,-130 2478,-78 1046,-78"/>
</g>
<g id="clust25" class="cluster">
<title>cluster_UiModule_exports</title>
<polygon fill="none" stroke="black" points="1205,-222 1205,-274 2111,-274 2111,-222 1205,-222"/>
</g>
<g id="clust28" class="cluster">
<title>cluster_ViewsModule</title>
<polygon fill="none" stroke="black" stroke-dasharray="1,5" points="8,-138 8,-206 1030,-206 1030,-138 8,-138"/>
</g>
<g id="clust29" class="cluster">
<title>cluster_ViewsModule_declarations</title>
<polygon fill="none" stroke="black" points="528,-146 528,-198 1022,-198 1022,-146 528,-146"/>
</g>
<g id="clust34" class="cluster">
<title>cluster_ViewsModule_exports</title>
<polygon fill="none" stroke="black" points="16,-146 16,-198 520,-198 520,-146 16,-146"/>
</g>
<!-- AppComponent -->
<g id="node1" class="node">
<title>AppComponent</title>
<polygon fill="#ffffb3" stroke="black" points="926.94,-266 821.06,-266 821.06,-230 926.94,-230 926.94,-266"/>
<text text-anchor="middle" x="874" y="-243.8" font-family="Times,serif" font-size="14.00">AppComponent</text>
</g>
<!-- AppModule -->
<g id="node2" class="node">
<title>AppModule</title>
<polygon fill="#8dd3c7" stroke="black" points="774.66,-331 771.66,-335 750.66,-335 747.66,-331 691.34,-331 691.34,-295 774.66,-295 774.66,-331"/>
<text text-anchor="middle" x="733" y="-308.8" font-family="Times,serif" font-size="14.00">AppModule</text>
</g>
<!-- AppComponent&#45;&gt;AppModule -->
<g id="edge1" class="edge">
<title>AppComponent&#45;&gt;AppModule</title>
<path fill="none" stroke="black" d="M874,-266.11C874,-285.34 874,-313 874,-313 874,-313 784.92,-313 784.92,-313"/>
<polygon fill="black" stroke="black" points="784.92,-309.5 774.92,-313 784.92,-316.5 784.92,-309.5"/>
</g>
<!-- AppComponent  -->
<g id="node5" class="node">
<title>AppComponent </title>
<polygon fill="#80b1d3" stroke="black" points="787.44,-396 678.56,-396 678.56,-360 787.44,-360 787.44,-396"/>
<text text-anchor="middle" x="733" y="-373.8" font-family="Times,serif" font-size="14.00">AppComponent </text>
</g>
<!-- AppModule&#45;&gt;AppComponent  -->
<g id="edge4" class="edge">
<title>AppModule&#45;&gt;AppComponent </title>
<path fill="none" stroke="black" stroke-dasharray="1,5" d="M733,-331.11C733,-331.11 733,-349.99 733,-349.99"/>
<polygon fill="black" stroke="black" points="729.5,-349.99 733,-359.99 736.5,-349.99 729.5,-349.99"/>
</g>
<!-- AppRoutingModule -->
<g id="node3" class="node">
<title>AppRoutingModule</title>
<polygon fill="#8dd3c7" stroke="black" points="797.27,-266 794.27,-270 773.27,-270 770.27,-266 668.73,-266 668.73,-230 797.27,-230 797.27,-266"/>
<text text-anchor="middle" x="733" y="-243.8" font-family="Times,serif" font-size="14.00">AppRoutingModule</text>
</g>
<!-- AppRoutingModule&#45;&gt;AppModule -->
<g id="edge2" class="edge">
<title>AppRoutingModule&#45;&gt;AppModule</title>
<path fill="none" stroke="black" d="M733,-266.11C733,-266.11 733,-284.99 733,-284.99"/>
<polygon fill="black" stroke="black" points="729.5,-284.99 733,-294.99 736.5,-284.99 729.5,-284.99"/>
</g>
<!-- ViewsModule -->
<g id="node4" class="node">
<title>ViewsModule</title>
<polygon fill="#8dd3c7" stroke="black" points="650.81,-266 647.81,-270 626.81,-270 623.81,-266 555.19,-266 555.19,-230 650.81,-230 650.81,-266"/>
<text text-anchor="middle" x="603" y="-243.8" font-family="Times,serif" font-size="14.00">ViewsModule</text>
</g>
<!-- ViewsModule&#45;&gt;AppModule -->
<g id="edge3" class="edge">
<title>ViewsModule&#45;&gt;AppModule</title>
<path fill="none" stroke="black" d="M603,-266.11C603,-285.34 603,-313 603,-313 603,-313 681.15,-313 681.15,-313"/>
<polygon fill="black" stroke="black" points="681.15,-316.5 691.15,-313 681.15,-309.5 681.15,-316.5"/>
</g>
<!-- ViewDetailComponent  -->
<g id="node23" class="node">
<title>ViewDetailComponent </title>
<polygon fill="#fb8072" stroke="black" points="511.86,-190 362.14,-190 362.14,-154 511.86,-154 511.86,-190"/>
<text text-anchor="middle" x="437" y="-167.8" font-family="Times,serif" font-size="14.00">ViewDetailComponent </text>
</g>
<!-- ViewsModule&#45;&gt;ViewDetailComponent  -->
<g id="edge22" class="edge">
<title>ViewsModule&#45;&gt;ViewDetailComponent </title>
<path fill="none" stroke="black" stroke-dasharray="5,2" d="M554.99,-239C505.96,-239 437,-239 437,-239 437,-239 437,-200.31 437,-200.31"/>
<polygon fill="black" stroke="black" points="440.5,-200.31 437,-190.31 433.5,-200.31 440.5,-200.31"/>
</g>
<!-- ViewDiscountComponent  -->
<g id="node24" class="node">
<title>ViewDiscountComponent </title>
<polygon fill="#fb8072" stroke="black" points="343.7,-190 178.3,-190 178.3,-154 343.7,-154 343.7,-190"/>
<text text-anchor="middle" x="261" y="-167.8" font-family="Times,serif" font-size="14.00">ViewDiscountComponent </text>
</g>
<!-- ViewsModule&#45;&gt;ViewDiscountComponent  -->
<g id="edge23" class="edge">
<title>ViewsModule&#45;&gt;ViewDiscountComponent </title>
<path fill="none" stroke="black" stroke-dasharray="5,2" d="M555.09,-248C460.96,-248 261,-248 261,-248 261,-248 261,-200.01 261,-200.01"/>
<polygon fill="black" stroke="black" points="264.5,-200.01 261,-190.01 257.5,-200.01 264.5,-200.01"/>
</g>
<!-- ViewListComponent  -->
<g id="node25" class="node">
<title>ViewListComponent </title>
<polygon fill="#fb8072" stroke="black" points="160.43,-190 23.57,-190 23.57,-154 160.43,-154 160.43,-190"/>
<text text-anchor="middle" x="92" y="-167.8" font-family="Times,serif" font-size="14.00">ViewListComponent </text>
</g>
<!-- ViewsModule&#45;&gt;ViewListComponent  -->
<g id="edge24" class="edge">
<title>ViewsModule&#45;&gt;ViewListComponent </title>
<path fill="none" stroke="black" stroke-dasharray="5,2" d="M554.93,-257C427.72,-257 92,-257 92,-257 92,-257 92,-200.03 92,-200.03"/>
<polygon fill="black" stroke="black" points="95.5,-200.03 92,-190.03 88.5,-200.03 95.5,-200.03"/>
</g>
<!-- UiImageCarouselComponent -->
<g id="node6" class="node">
<title>UiImageCarouselComponent</title>
<polygon fill="#ffffb3" stroke="black" points="2470.07,-122 2289.93,-122 2289.93,-86 2470.07,-86 2470.07,-122"/>
<text text-anchor="middle" x="2380" y="-99.8" font-family="Times,serif" font-size="14.00">UiImageCarouselComponent</text>
</g>
<!-- UiModule -->
<g id="node14" class="node">
<title>UiModule</title>
<polygon fill="#8dd3c7" stroke="black" points="1691.55,-190 1688.55,-194 1667.55,-194 1664.55,-190 1618.45,-190 1618.45,-154 1691.55,-154 1691.55,-190"/>
<text text-anchor="middle" x="1655" y="-167.8" font-family="Times,serif" font-size="14.00">UiModule</text>
</g>
<!-- UiImageCarouselComponent&#45;&gt;UiModule -->
<g id="edge5" class="edge">
<title>UiImageCarouselComponent&#45;&gt;UiModule</title>
<path fill="none" stroke="black" d="M2380,-122.28C2380,-143.32 2380,-175 2380,-175 2380,-175 1701.95,-175 1701.95,-175"/>
<polygon fill="black" stroke="black" points="1701.95,-171.5 1691.95,-175 1701.95,-178.5 1701.95,-171.5"/>
</g>
<!-- UiNavbarComponent -->
<g id="node7" class="node">
<title>UiNavbarComponent</title>
<polygon fill="#ffffb3" stroke="black" points="2272.03,-122 2135.97,-122 2135.97,-86 2272.03,-86 2272.03,-122"/>
<text text-anchor="middle" x="2204" y="-99.8" font-family="Times,serif" font-size="14.00">UiNavbarComponent</text>
</g>
<!-- UiNavbarComponent&#45;&gt;UiModule -->
<g id="edge6" class="edge">
<title>UiNavbarComponent&#45;&gt;UiModule</title>
<path fill="none" stroke="black" d="M2204,-122.03C2204,-141.58 2204,-170 2204,-170 2204,-170 1701.87,-170 1701.87,-170"/>
<polygon fill="black" stroke="black" points="1701.87,-166.5 1691.87,-170 1701.87,-173.5 1701.87,-166.5"/>
</g>
<!-- UiProductDetailComponent -->
<g id="node8" class="node">
<title>UiProductDetailComponent</title>
<polygon fill="#ffffb3" stroke="black" points="2117.59,-122 1944.41,-122 1944.41,-86 2117.59,-86 2117.59,-122"/>
<text text-anchor="middle" x="2031" y="-99.8" font-family="Times,serif" font-size="14.00">UiProductDetailComponent</text>
</g>
<!-- UiProductDetailComponent&#45;&gt;UiModule -->
<g id="edge7" class="edge">
<title>UiProductDetailComponent&#45;&gt;UiModule</title>
<path fill="none" stroke="black" d="M2023.62,-122.3C2023.62,-140.27 2023.62,-165 2023.62,-165 2023.62,-165 1701.69,-165 1701.69,-165"/>
<polygon fill="black" stroke="black" points="1701.69,-161.5 1691.69,-165 1701.69,-168.5 1701.69,-161.5"/>
</g>
<!-- UiProductListComponent -->
<g id="node9" class="node">
<title>UiProductListComponent</title>
<polygon fill="#ffffb3" stroke="black" points="1926.16,-122 1765.84,-122 1765.84,-86 1926.16,-86 1926.16,-122"/>
<text text-anchor="middle" x="1846" y="-99.8" font-family="Times,serif" font-size="14.00">UiProductListComponent</text>
</g>
<!-- UiProductListComponent&#45;&gt;UiModule -->
<g id="edge8" class="edge">
<title>UiProductListComponent&#45;&gt;UiModule</title>
<path fill="none" stroke="black" d="M1810.79,-122.03C1810.79,-138.4 1810.79,-160 1810.79,-160 1810.79,-160 1701.92,-160 1701.92,-160"/>
<polygon fill="black" stroke="black" points="1701.92,-156.5 1691.92,-160 1701.92,-163.5 1701.92,-156.5"/>
</g>
<!-- UiProductListItemComponent -->
<g id="node10" class="node">
<title>UiProductListItemComponent</title>
<polygon fill="#ffffb3" stroke="black" points="1748.31,-122 1561.69,-122 1561.69,-86 1748.31,-86 1748.31,-122"/>
<text text-anchor="middle" x="1655" y="-99.8" font-family="Times,serif" font-size="14.00">UiProductListItemComponent</text>
</g>
<!-- UiProductListItemComponent&#45;&gt;UiModule -->
<g id="edge9" class="edge">
<title>UiProductListItemComponent&#45;&gt;UiModule</title>
<path fill="none" stroke="black" d="M1655,-122.22C1655,-122.22 1655,-143.73 1655,-143.73"/>
<polygon fill="black" stroke="black" points="1651.5,-143.73 1655,-153.73 1658.5,-143.73 1651.5,-143.73"/>
</g>
<!-- UiRatingComponent -->
<g id="node11" class="node">
<title>UiRatingComponent</title>
<polygon fill="#ffffb3" stroke="black" points="1544.16,-122 1411.84,-122 1411.84,-86 1544.16,-86 1544.16,-122"/>
<text text-anchor="middle" x="1478" y="-99.8" font-family="Times,serif" font-size="14.00">UiRatingComponent</text>
</g>
<!-- UiRatingComponent&#45;&gt;UiModule -->
<g id="edge10" class="edge">
<title>UiRatingComponent&#45;&gt;UiModule</title>
<path fill="none" stroke="black" d="M1500.11,-122.03C1500.11,-138.4 1500.11,-160 1500.11,-160 1500.11,-160 1608.29,-160 1608.29,-160"/>
<polygon fill="black" stroke="black" points="1608.29,-163.5 1618.29,-160 1608.29,-156.5 1608.29,-163.5"/>
</g>
<!-- UiSearchbarComponent -->
<g id="node12" class="node">
<title>UiSearchbarComponent</title>
<polygon fill="#ffffb3" stroke="black" points="1393.79,-122 1242.21,-122 1242.21,-86 1393.79,-86 1393.79,-122"/>
<text text-anchor="middle" x="1318" y="-99.8" font-family="Times,serif" font-size="14.00">UiSearchbarComponent</text>
</g>
<!-- UiSearchbarComponent&#45;&gt;UiModule -->
<g id="edge11" class="edge">
<title>UiSearchbarComponent&#45;&gt;UiModule</title>
<path fill="none" stroke="black" d="M1389.28,-122.27C1389.28,-140.56 1389.28,-166 1389.28,-166 1389.28,-166 1608.33,-166 1608.33,-166"/>
<polygon fill="black" stroke="black" points="1608.33,-169.5 1618.33,-166 1608.33,-162.5 1608.33,-169.5"/>
</g>
<!-- UiSimpleImageComponent -->
<g id="node13" class="node">
<title>UiSimpleImageComponent</title>
<polygon fill="#ffffb3" stroke="black" points="1223.98,-122 1054.02,-122 1054.02,-86 1223.98,-86 1223.98,-122"/>
<text text-anchor="middle" x="1139" y="-99.8" font-family="Times,serif" font-size="14.00">UiSimpleImageComponent</text>
</g>
<!-- UiSimpleImageComponent&#45;&gt;UiModule -->
<g id="edge12" class="edge">
<title>UiSimpleImageComponent&#45;&gt;UiModule</title>
<path fill="none" stroke="black" d="M1218.3,-122.22C1218.3,-142.37 1218.3,-172 1218.3,-172 1218.3,-172 1608.14,-172 1608.14,-172"/>
<polygon fill="black" stroke="black" points="1608.14,-175.5 1618.14,-172 1608.14,-168.5 1608.14,-175.5"/>
</g>
<!-- UiModule&#45;&gt;ViewsModule -->
<g id="edge21" class="edge">
<title>UiModule&#45;&gt;ViewsModule</title>
<path fill="none" stroke="black" d="M1642.74,-190.15C1642.74,-203.74 1642.74,-220 1642.74,-220 1642.74,-220 631.59,-220 631.59,-220 631.59,-220 631.59,-220.98 631.59,-220.98"/>
<polygon fill="black" stroke="black" points="628.09,-219.79 631.59,-229.79 635.09,-219.79 628.09,-219.79"/>
</g>
<!-- UiImageCarouselComponent  -->
<g id="node15" class="node">
<title>UiImageCarouselComponent </title>
<polygon fill="#fb8072" stroke="black" points="2102.57,-266 1919.43,-266 1919.43,-230 2102.57,-230 2102.57,-266"/>
<text text-anchor="middle" x="2011" y="-243.8" font-family="Times,serif" font-size="14.00">UiImageCarouselComponent </text>
</g>
<!-- UiModule&#45;&gt;UiImageCarouselComponent  -->
<g id="edge13" class="edge">
<title>UiModule&#45;&gt;UiImageCarouselComponent </title>
<path fill="none" stroke="black" stroke-dasharray="5,2" d="M1691.67,-180C1765.01,-180 1922.77,-180 1922.77,-180 1922.77,-180 1922.77,-219.78 1922.77,-219.78"/>
<polygon fill="black" stroke="black" points="1919.27,-219.78 1922.77,-229.78 1926.27,-219.78 1919.27,-219.78"/>
</g>
<!-- UiNavbarComponent  -->
<g id="node16" class="node">
<title>UiNavbarComponent </title>
<polygon fill="#fb8072" stroke="black" points="1901.03,-266 1760.97,-266 1760.97,-230 1901.03,-230 1901.03,-266"/>
<text text-anchor="middle" x="1831" y="-243.8" font-family="Times,serif" font-size="14.00">UiNavbarComponent </text>
</g>
<!-- UiModule&#45;&gt;UiNavbarComponent  -->
<g id="edge14" class="edge">
<title>UiModule&#45;&gt;UiNavbarComponent </title>
<path fill="none" stroke="black" stroke-dasharray="5,2" d="M1691.85,-185C1749.85,-185 1855.9,-185 1855.9,-185 1855.9,-185 1855.9,-219.78 1855.9,-219.78"/>
<polygon fill="black" stroke="black" points="1852.4,-219.78 1855.9,-229.78 1859.4,-219.78 1852.4,-219.78"/>
</g>
<!-- UiProductDetailComponent  -->
<g id="node17" class="node">
<title>UiProductDetailComponent </title>
<polygon fill="#fb8072" stroke="black" points="1743.09,-266 1566.91,-266 1566.91,-230 1743.09,-230 1743.09,-266"/>
<text text-anchor="middle" x="1655" y="-243.8" font-family="Times,serif" font-size="14.00">UiProductDetailComponent </text>
</g>
<!-- UiModule&#45;&gt;UiProductDetailComponent  -->
<g id="edge15" class="edge">
<title>UiModule&#45;&gt;UiProductDetailComponent </title>
<path fill="none" stroke="black" stroke-dasharray="5,2" d="M1667.26,-190.01C1667.26,-190.01 1667.26,-219.85 1667.26,-219.85"/>
<polygon fill="black" stroke="black" points="1663.76,-219.85 1667.26,-229.85 1670.76,-219.85 1663.76,-219.85"/>
</g>
<!-- UiProductListComponent  -->
<g id="node18" class="node">
<title>UiProductListComponent </title>
<polygon fill="#fb8072" stroke="black" points="1549.16,-266 1384.84,-266 1384.84,-230 1549.16,-230 1549.16,-266"/>
<text text-anchor="middle" x="1467" y="-243.8" font-family="Times,serif" font-size="14.00">UiProductListComponent </text>
</g>
<!-- UiModule&#45;&gt;UiProductListComponent  -->
<g id="edge16" class="edge">
<title>UiModule&#45;&gt;UiProductListComponent </title>
<path fill="none" stroke="black" stroke-dasharray="5,2" d="M1618.02,-184C1560.43,-184 1455.89,-184 1455.89,-184 1455.89,-184 1455.89,-219.83 1455.89,-219.83"/>
<polygon fill="black" stroke="black" points="1452.39,-219.83 1455.89,-229.83 1459.39,-219.83 1452.39,-219.83"/>
</g>
<!-- UiSearchbarComponent  -->
<g id="node19" class="node">
<title>UiSearchbarComponent </title>
<polygon fill="#fb8072" stroke="black" points="1367.29,-266 1212.71,-266 1212.71,-230 1367.29,-230 1367.29,-266"/>
<text text-anchor="middle" x="1290" y="-243.8" font-family="Times,serif" font-size="14.00">UiSearchbarComponent </text>
</g>
<!-- UiModule&#45;&gt;UiSearchbarComponent  -->
<g id="edge17" class="edge">
<title>UiModule&#45;&gt;UiSearchbarComponent </title>
<path fill="none" stroke="black" stroke-dasharray="5,2" d="M1618.19,-178C1528.3,-178 1304.88,-178 1304.88,-178 1304.88,-178 1304.88,-219.97 1304.88,-219.97"/>
<polygon fill="black" stroke="black" points="1301.38,-219.97 1304.88,-229.97 1308.38,-219.97 1301.38,-219.97"/>
</g>
<!-- ViewDetailComponent -->
<g id="node20" class="node">
<title>ViewDetailComponent</title>
<polygon fill="#ffffb3" stroke="black" points="1013.86,-190 868.14,-190 868.14,-154 1013.86,-154 1013.86,-190"/>
<text text-anchor="middle" x="941" y="-167.8" font-family="Times,serif" font-size="14.00">ViewDetailComponent</text>
</g>
<!-- ViewDetailComponent&#45;&gt;ViewsModule -->
<g id="edge18" class="edge">
<title>ViewDetailComponent&#45;&gt;ViewsModule</title>
<path fill="none" stroke="black" d="M897.4,-190.11C897.4,-199.9 897.4,-210 897.4,-210 897.4,-210 612.53,-210 612.53,-210 612.53,-210 612.53,-219.89 612.53,-219.89"/>
<polygon fill="black" stroke="black" points="609.03,-219.89 612.53,-229.89 616.03,-219.89 609.03,-219.89"/>
</g>
<!-- ViewDiscountComponent -->
<g id="node21" class="node">
<title>ViewDiscountComponent</title>
<polygon fill="#ffffb3" stroke="black" points="850.2,-190 687.8,-190 687.8,-154 850.2,-154 850.2,-190"/>
<text text-anchor="middle" x="769" y="-167.8" font-family="Times,serif" font-size="14.00">ViewDiscountComponent</text>
</g>
<!-- ViewDiscountComponent&#45;&gt;ViewsModule -->
<g id="edge19" class="edge">
<title>ViewDiscountComponent&#45;&gt;ViewsModule</title>
<path fill="none" stroke="black" d="M742.64,-190.21C742.64,-195.55 742.64,-200 742.64,-200 742.64,-200 593.47,-200 593.47,-200 593.47,-200 593.47,-219.85 593.47,-219.85"/>
<polygon fill="black" stroke="black" points="589.97,-219.85 593.47,-229.85 596.97,-219.85 589.97,-219.85"/>
</g>
<!-- ViewListComponent -->
<g id="node22" class="node">
<title>ViewListComponent</title>
<polygon fill="#ffffb3" stroke="black" points="669.93,-190 536.07,-190 536.07,-154 669.93,-154 669.93,-190"/>
<text text-anchor="middle" x="603" y="-167.8" font-family="Times,serif" font-size="14.00">ViewListComponent</text>
</g>
<!-- ViewListComponent&#45;&gt;ViewsModule -->
<g id="edge20" class="edge">
<title>ViewListComponent&#45;&gt;ViewsModule</title>
<path fill="none" stroke="black" d="M574.41,-190.01C574.41,-190.01 574.41,-219.85 574.41,-219.85"/>
<polygon fill="black" stroke="black" points="570.91,-219.85 574.41,-229.85 577.91,-219.85 570.91,-219.85"/>
</g>
</g>
</svg>
